<?xml version="1.0" encoding="UTF-8"?>
<svg xmlns="http://www.w3.org/2000/svg" xmlns:xlink="http://www.w3.org/1999/xlink" width="224.87999pt" height="225pt" viewBox="0 0 224.87999 225" version="1.2">
<defs>
<clipPath id="clip1">
  <path d="M 14 1 L 219 1 L 219 224 L 14 224 Z M 14 1 "/>
</clipPath>
<clipPath id="clip2">
  <path d="M 68.949219 -41.917969 L 270.984375 150.273438 L 169.207031 257.269531 L -32.832031 65.074219 Z M 68.949219 -41.917969 "/>
</clipPath>
<clipPath id="clip3">
  <path d="M 68.949219 -41.917969 L 270.984375 150.273438 L 169.207031 257.269531 L -32.832031 65.074219 Z M 68.949219 -41.917969 "/>
</clipPath>
<clipPath id="clip4">
  <path d="M 157 212 L 158 212 L 158 214 L 157 214 Z M 157 212 "/>
</clipPath>
<clipPath id="clip5">
  <path d="M 68.949219 -41.917969 L 270.984375 150.273438 L 169.207031 257.269531 L -32.832031 65.074219 Z M 68.949219 -41.917969 "/>
</clipPath>
<clipPath id="clip6">
  <path d="M 68.949219 -41.917969 L 270.984375 150.273438 L 169.207031 257.269531 L -32.832031 65.074219 Z M 68.949219 -41.917969 "/>
</clipPath>
<clipPath id="clip7">
  <path d="M 169 212 L 170 212 L 170 213 L 169 213 Z M 169 212 "/>
</clipPath>
<clipPath id="clip8">
  <path d="M 68.949219 -41.917969 L 270.984375 150.273438 L 169.207031 257.269531 L -32.832031 65.074219 Z M 68.949219 -41.917969 "/>
</clipPath>
<clipPath id="clip9">
  <path d="M 68.949219 -41.917969 L 270.984375 150.273438 L 169.207031 257.269531 L -32.832031 65.074219 Z M 68.949219 -41.917969 "/>
</clipPath>
</defs>
<g id="surface1">
<g clip-path="url(#clip1)" clip-rule="nonzero">
<g clip-path="url(#clip2)" clip-rule="nonzero">
<g clip-path="url(#clip3)" clip-rule="nonzero">
<path style=" stroke:none;fill-rule:nonzero;fill:rgb(52.159119%,51.368713%,77.648926%);fill-opacity:1;" d="M 32.910156 1.328125 C 29.433594 1.738281 26.3125 2.964844 24.074219 5.726562 C 17.320312 14.019531 13.550781 23.382812 14.417969 34.257812 C 15.5 47.828125 20.75 60.039062 27.171875 71.753906 C 44.273438 102.96875 68.640625 127.652344 96.996094 148.660156 C 101.808594 152.230469 106.660156 155.777344 112.121094 158.34375 C 119.089844 163.410156 126.199219 168.261719 133.996094 172.019531 C 134.265625 172.644531 134.785156 172.832031 135.417969 172.816406 C 135.664062 173.421875 136.105469 173.695312 136.765625 173.605469 L 136.851562 173.644531 C 137.324219 174.46875 138.070312 174.765625 138.96875 174.796875 C 139.234375 175.398438 139.714844 175.632812 140.367188 175.550781 L 140.378906 175.5625 C 140.851562 176.402344 141.636719 176.679688 142.535156 176.730469 C 142.824219 177.335938 143.316406 177.535156 143.957031 177.464844 C 144.429688 178.328125 145.238281 178.5625 146.132812 178.613281 C 146.425781 179.21875 146.925781 179.40625 147.566406 179.335938 C 148.074219 180.230469 148.953125 180.429688 149.871094 180.503906 C 158.082031 185.539062 167.191406 188.71875 176.636719 193.015625 C 174.890625 193.535156 174.027344 193.882812 173.132812 194.039062 C 162.476562 196.03125 151.945312 198.386719 141.519531 201.4375 C 137.019531 202.746094 135.59375 205.089844 134.890625 208.921875 C 133.875 210.011719 134.023438 211.367188 134.296875 212.613281 C 134.59375 213.925781 134.886719 215.109375 133.820312 216.210938 C 131.746094 218.347656 132.148438 220.867188 133.734375 222.765625 C 135.246094 224.59375 137.527344 223.601562 139.457031 222.867188 C 147.128906 219.949219 155.03125 217.828125 163.027344 216.058594 C 165.808594 215.949219 168.542969 215.734375 171.035156 214.347656 C 171.695312 214.214844 172.355469 214.101562 173.015625 213.96875 C 175.949219 213.59375 178.890625 213.226562 181.820312 212.847656 C 182.921875 211.796875 184.429688 211.8125 185.765625 211.402344 C 185.964844 211.34375 186.164062 211.265625 186.351562 211.175781 C 187.867188 211.117188 189.394531 211.070312 190.929688 211.011719 C 194.292969 210.550781 197.628906 210.089844 200.992188 209.625 C 204.523438 209.632812 208.054688 209.789062 211.570312 209.617188 C 213.414062 209.519531 215.25 208.84375 213.023438 206.578125 C 211.867188 205.417969 212.628906 205.21875 213.667969 205.035156 C 214.707031 204.851562 215.976562 205.054688 216.351562 203.601562 C 218.773438 199.039062 220.273438 194.546875 217.433594 189.398438 C 216.152344 187.09375 214.347656 185.683594 212.484375 184.179688 C 193.433594 168.765625 175.816406 151.84375 158.980469 134.082031 C 156.664062 131.628906 154.46875 129.050781 152.285156 126.457031 C 151.261719 125.238281 150.226562 124.621094 149.148438 126.144531 C 146.523438 129.875 144.589844 133.8125 146.445312 138.539062 C 145.949219 140.882812 146.527344 142.953125 147.925781 144.859375 C 154.429688 153.71875 161.449219 162.125 170.066406 169.046875 C 169.960938 169.4375 170.0625 169.742188 170.375 169.996094 C 170.226562 170.328125 170.109375 170.667969 170.03125 171.027344 C 164.085938 167.242188 157.429688 164.859375 151.195312 161.640625 C 150.640625 161.359375 150.183594 161.707031 150.253906 162.429688 C 122.082031 146.894531 96.75 127.6875 73.617188 105.25 C 57.5 89.609375 44.117188 72.234375 33.980469 52.292969 C 29.289062 43.0625 25.296875 33.550781 24.136719 23.113281 C 23.589844 18.238281 24.039062 17.59375 28.945312 17 C 34.617188 16.3125 40.195312 17.238281 45.695312 18.546875 C 63.644531 22.816406 81.054688 28.667969 97.9375 36.113281 C 118.761719 45.296875 138.851562 55.964844 159.125 66.246094 C 160.128906 66.746094 161.132812 67.269531 162.085938 67.867188 C 163.339844 68.648438 164.285156 68.152344 164.933594 67.101562 C 167.371094 63.15625 167.363281 58.664062 166.96875 54.367188 C 166.683594 51.316406 163.417969 50.144531 161.03125 48.757812 C 146.722656 40.449219 132.402344 32.167969 117.464844 24.992188 C 115.792969 24.179688 114.015625 23.578125 112.292969 22.886719 C 111.96875 22.207031 111.425781 22 110.722656 22.152344 L 110.660156 22.132812 C 110.125 21.316406 109.347656 21.027344 108.402344 21.15625 C 107.871094 20.265625 107.035156 20.085938 106.078125 20.160156 C 101.453125 17.304688 96.261719 15.816406 91.203125 14.046875 C 88.023438 12.933594 84.777344 12.042969 81.335938 12.738281 C 68.648438 8.109375 55.746094 4.199219 42.4375 1.757812 C 39.324219 1.199219 36.113281 0.941406 32.910156 1.328125 Z M 137.398438 218.933594 C 137.398438 218.933594 137.410156 218.945312 137.398438 218.933594 C 137.367188 218.988281 137.335938 219.019531 137.296875 219.085938 C 137.316406 219.023438 137.367188 218.988281 137.398438 218.933594 Z M 205.667969 207.886719 C 205.5625 207.933594 205.460938 207.957031 205.34375 207.992188 C 205.382812 207.90625 205.433594 207.808594 205.464844 207.714844 C 205.527344 207.777344 205.59375 207.835938 205.667969 207.886719 Z M 207.472656 205.558594 C 208.140625 205.613281 208.558594 205.953125 208.714844 206.613281 C 208.230469 206.707031 207.738281 206.792969 207.265625 206.878906 C 206.648438 206.988281 206.015625 207.109375 205.398438 207.21875 C 205.25 207.246094 205.125 207.269531 204.980469 207.292969 C 198.484375 208.023438 191.992188 208.75 185.496094 209.480469 C 185.269531 209.738281 185.089844 210.015625 184.90625 210.316406 C 184.886719 210.316406 184.863281 210.316406 184.855469 210.328125 C 182.6875 210.550781 180.535156 210.761719 178.367188 210.984375 C 176.082031 211.335938 173.804688 211.695312 171.515625 212.046875 C 170.957031 212.136719 170.402344 212.222656 169.84375 212.308594 C 169.609375 212.535156 169.414062 212.804688 169.296875 213.101562 C 165.652344 213.625 162.011719 214.167969 158.367188 214.6875 C 155.730469 214.976562 153.101562 215.273438 150.464844 215.558594 C 150.136719 215.597656 149.800781 215.625 149.476562 215.667969 C 149.445312 215.636719 149.421875 215.613281 149.402344 215.59375 C 149.398438 215.550781 149.386719 215.519531 149.386719 215.480469 C 149.347656 215.132812 149.304688 214.785156 149.265625 214.4375 C 151.863281 213.847656 154.253906 212.441406 157.023438 212.488281 C 165.300781 210.554688 173.640625 209.011719 182.105469 208.246094 C 182.105469 208.246094 182.125 208.246094 182.125 208.246094 C 185.507812 206.960938 189.03125 206.390625 192.636719 206.324219 C 195.589844 205.660156 198.582031 205.28125 201.609375 205.300781 C 203.582031 204.957031 205.574219 204.179688 207.472656 205.558594 Z M 82.042969 132.011719 Z M 82.117188 132.0625 Z M 83.363281 133.0625 Z M 90.839844 139.042969 Z M 92.085938 140.046875 Z M 93.335938 141.046875 Z M 94.582031 142.027344 Z M 95.832031 143.03125 Z M 97.078125 144.03125 Z M 98.324219 145.035156 Z M 108.089844 151.875 C 108.101562 151.886719 108.101562 151.886719 108.089844 151.875 C 108.238281 151.976562 108.390625 152.058594 108.519531 152.160156 C 108.570312 152.210938 108.636719 152.253906 108.691406 152.304688 C 108.496094 152.160156 108.292969 152.03125 108.089844 151.875 Z M 109.433594 152.886719 Z M 109.464844 152.917969 C 109.476562 152.929688 109.476562 152.929688 109.464844 152.917969 C 109.742188 153.140625 110.011719 153.355469 110.292969 153.5625 C 110.304688 153.570312 110.304688 153.570312 110.3125 153.582031 C 110.035156 153.378906 109.753906 153.152344 109.464844 152.917969 Z M 150.710938 176.71875 C 150.746094 176.8125 150.707031 176.921875 150.585938 177.050781 C 150.601562 176.921875 150.578125 176.796875 150.542969 176.703125 C 150.605469 176.703125 150.648438 176.722656 150.710938 176.71875 C 150.691406 176.679688 150.667969 176.65625 150.636719 176.625 C 150.667969 176.65625 150.703125 176.6875 150.710938 176.71875 Z M 147.09375 174.839844 C 147.070312 174.816406 147.050781 174.796875 147.039062 174.785156 C 147.070312 174.796875 147.09375 174.816406 147.136719 174.835938 C 147.113281 174.835938 147.113281 174.835938 147.09375 174.839844 Z M 172.003906 173.5 C 172.125 173.410156 172.261719 173.375 172.386719 173.351562 C 172.410156 173.351562 172.429688 173.328125 172.453125 173.328125 C 172.492188 173.328125 172.535156 173.347656 172.566406 173.335938 C 172.683594 173.34375 172.808594 173.339844 172.925781 173.390625 C 172.941406 173.484375 172.964844 173.570312 172.988281 173.652344 C 173.015625 173.90625 173.0625 174.15625 173.140625 174.398438 C 172.78125 174.300781 172.429688 174.195312 172.070312 174.097656 C 172.105469 173.886719 172.089844 173.6875 172.003906 173.5 Z M 110.730469 153.875 C 110.699219 153.847656 110.65625 153.824219 110.625 153.796875 C 110.65625 153.824219 110.699219 153.847656 110.730469 153.875 Z M 99.667969 146.046875 C 99.660156 146.035156 99.648438 146.046875 99.636719 146.035156 C 99.625 146.023438 99.59375 146.015625 99.582031 146.003906 C 99.574219 145.996094 99.574219 145.996094 99.574219 145.972656 C 99.605469 146.003906 99.636719 146.015625 99.667969 146.046875 Z M 98.378906 145.066406 Z M 98.273438 144.984375 Z M 97.132812 144.085938 Z M 97.023438 143.980469 Z M 95.882812 143.082031 Z M 95.765625 142.992188 Z M 93.398438 141.089844 Z M 93.28125 140.996094 Z M 92.152344 140.085938 Z M 92.035156 139.996094 Z M 90.902344 139.085938 Z M 90.796875 139.003906 Z M 89.644531 138.09375 Z M 89.550781 138 C 89.550781 138 89.539062 137.992188 89.550781 138 C 89.539062 137.992188 89.539062 137.992188 89.550781 138 C 89.539062 137.992188 89.550781 138 89.550781 138 Z M 88.410156 137.101562 Z M 88.289062 137.011719 C 88.289062 137.011719 88.28125 137 88.289062 137.011719 C 88.28125 137 88.28125 137 88.289062 137.011719 C 88.28125 137 88.289062 137.011719 88.289062 137.011719 Z M 87.160156 136.101562 Z M 87.042969 136.007812 C 87.03125 135.996094 87.03125 135.996094 87.042969 136.007812 Z M 85.925781 135.109375 C 85.925781 135.109375 85.914062 135.097656 85.925781 135.109375 C 85.914062 135.097656 85.914062 135.097656 85.925781 135.109375 C 85.914062 135.097656 85.925781 135.109375 85.925781 135.109375 Z M 85.796875 135.003906 Z M 84.675781 134.105469 Z M 84.546875 134.003906 C 84.546875 134.003906 84.535156 133.992188 84.546875 134.003906 C 84.535156 133.992188 84.535156 133.992188 84.546875 134.003906 C 84.535156 133.992188 84.546875 134.003906 84.546875 134.003906 Z M 83.429688 133.105469 Z M 83.300781 133 Z M 82.179688 132.121094 Z M 80.933594 131.121094 Z M 80.792969 131.007812 Z M 79.738281 130.128906 C 79.695312 130.109375 79.683594 130.078125 79.652344 130.046875 C 79.652344 130.046875 79.640625 130.035156 79.652344 130.023438 C 79.652344 130.023438 79.652344 130.023438 79.640625 130.035156 L 79.652344 130.023438 C 79.652344 130.023438 79.640625 130.015625 79.628906 130.023438 C 79.621094 130.015625 79.597656 129.996094 79.585938 129.984375 L 79.585938 129.964844 C 79.640625 130.015625 79.683594 130.078125 79.738281 130.128906 Z M 79.738281 130.128906 "/>
</g>
</g>
</g>
<g clip-path="url(#clip4)" clip-rule="nonzero">
<g clip-path="url(#clip5)" clip-rule="nonzero">
<g clip-path="url(#clip6)" clip-rule="nonzero">
<path style=" stroke:none;fill-rule:nonzero;fill:rgb(52.159119%,51.368713%,77.648926%);fill-opacity:1;" d="M 157.015625 212.5 C 157.304688 212.734375 157.59375 212.886719 157.890625 213.003906 C 157.59375 212.863281 157.304688 212.691406 157.015625 212.5 Z M 157.015625 212.5 "/>
</g>
</g>
</g>
<g clip-path="url(#clip7)" clip-rule="nonzero">
<g clip-path="url(#clip8)" clip-rule="nonzero">
<g clip-path="url(#clip9)" clip-rule="nonzero">
<path style=" stroke:none;fill-rule:nonzero;fill:rgb(52.159119%,51.368713%,77.648926%);fill-opacity:1;" d="M 169.402344 212.339844 C 169.351562 212.355469 169.296875 212.34375 169.246094 212.355469 C 169.171875 212.367188 169.109375 212.371094 169.035156 212.382812 C 169.109375 212.371094 169.171875 212.367188 169.246094 212.355469 C 169.308594 212.355469 169.351562 212.355469 169.402344 212.339844 Z M 169.402344 212.339844 "/>
</g>
</g>
</g>
</g>
</svg>
